<svg width="60" height="60" viewBox="0 0 60 60" fill="none" xmlns="http://www.w3.org/2000/svg">
<path d="M30 60C46.5685 60 60 46.5685 60 30C60 13.4315 46.5685 0 30 0C13.4315 0 0 13.4315 0 30C0 46.5685 13.4315 60 30 60Z" fill="white"/>
<path d="M48.3761 21.5601C47.0905 22.1302 45.7076 22.5158 44.2573 22.688C45.7381 21.8008 46.8745 20.397 47.4108 18.7215C46.0252 19.5435 44.4899 20.1398 42.8572 20.4612C41.5491 19.0681 39.6854 18.1974 37.6217 18.1974C33.6622 18.1974 30.4509 21.4088 30.4509 25.3683C30.4509 25.9303 30.5145 26.4774 30.6375 27.0026C24.6779 26.7036 19.3938 23.849 15.8568 19.5093C15.2396 20.5681 14.8856 21.8008 14.8856 23.1147C14.8856 25.602 16.1525 27.7978 18.0756 29.0834C16.9007 29.0465 15.7942 28.724 14.8279 28.1855C14.8273 28.216 14.8273 28.2465 14.8273 28.2764C14.8273 31.7509 17.3001 34.6488 20.5799 35.3072C19.9789 35.4719 19.3441 35.559 18.6911 35.559C18.228 35.559 17.7793 35.5146 17.3419 35.4312C18.2542 38.2794 20.9019 40.3528 24.0405 40.4111C21.5859 42.3347 18.4943 43.4807 15.1338 43.4807C14.5562 43.4807 13.984 43.447 13.4241 43.3802C16.5958 45.4155 20.366 46.6022 24.4154 46.6022C37.6051 46.6022 44.8182 35.6756 44.8182 26.1988C44.8182 25.8881 44.8113 25.5785 44.7974 25.2715C46.1996 24.2608 47.4151 22.9982 48.3761 21.5601Z" fill="#1B1B1B"/>
</svg>
