<svg width="60" height="60" viewBox="0 0 60 60" fill="none" xmlns="http://www.w3.org/2000/svg">
<path d="M30 60C46.5685 60 60 46.5685 60 30C60 13.4315 46.5685 0 30 0C13.4315 0 0 13.4315 0 30C0 46.5685 13.4315 60 30 60Z" fill="white"/>
<path d="M47.9247 32.414V44.7823H40.7538V33.2429C40.7538 30.3455 39.7185 28.3668 37.1221 28.3668C35.1408 28.3668 33.9637 29.6989 33.4439 30.9888C33.2552 31.4498 33.2065 32.0899 33.2065 32.7365V44.7818H26.0351C26.0351 44.7818 26.1314 25.2378 26.0351 23.2147H33.207V26.271C33.1926 26.2951 33.1723 26.3186 33.1594 26.3416H33.207V26.271C34.16 24.8046 35.8595 22.7083 39.6698 22.7083C44.3876 22.7083 47.9247 25.7908 47.9247 32.414ZM18.5332 12.8186C16.0802 12.8186 14.4753 14.4289 14.4753 16.5444C14.4753 18.6151 16.0337 20.2718 18.4391 20.2718H18.4856C20.9868 20.2718 22.5419 18.6151 22.5419 16.5444C22.4943 14.4289 20.9868 12.8186 18.5332 12.8186ZM14.9016 44.7823H22.0703V23.2147H14.9016V44.7823Z" fill="#1B1B1B"/>
</svg>
